<?xml version="1.0" encoding="utf-8" ?><svg xmlns="http://www.w3.org/2000/svg" xmlns:xlink="http://www.w3.org/1999/xlink" width="1024" height="1024" viewBox="0 0 1024 1024"><path fill="#a5b4fc" transform="scale(2 2)" d="M391.579 132.847C404.336 133.019 419.854 153.816 428.906 162.838C434.708 168.621 441.873 174.736 446.947 181.13C455.885 192.393 443.16 202.255 436.203 209.174L416.028 229.303C409.163 236.068 401.762 246.395 391.946 246.426C382.472 246.455 375.998 238.654 375.644 229.64C375.36 222.427 380.821 217.939 385.442 213.401L393.855 205.021C391.641 205.253 385.869 205.037 383.452 205.035C350.92 205.016 340.788 206.65 319.768 232.19L235.611 333.167C229.998 340.062 224.26 347.613 217.6 353.43C178.162 387.873 118.93 383.719 84.9131 343.97C41.9916 293.814 62.6426 217.292 124.125 195C159.315 182.3 198.301 191.669 223.549 219.202C230.339 226.862 240.614 238.802 240.975 249.334C241.266 257.835 232.433 265.87 223.889 264.999C214.266 264.017 212.153 258.129 207.721 250.993C188.07 219.347 143.626 211.752 115.59 236.908C74.6982 273.663 98.1761 340.931 152.372 343.792C179.824 345.283 195.16 331.693 211.036 312.081L292.257 214.219C324.03 175.472 347.206 170.92 393.855 173.001C388.487 167.307 376.859 158.914 376.161 151.067C375.2 140.256 381.49 134.103 391.579 132.847Z"/><path fill="#c7d2fe" transform="scale(2 2)" d="M431.722 262.111C449.419 261.239 449.969 279.492 448.868 292.23C442.129 370.188 339.044 408.276 285.608 344.249C281.253 339.601 274.708 331.308 273.794 324.898C272.103 313.031 283.059 303.419 294.592 307.166C301.672 309.467 303.316 315.266 307.477 320.623C341.886 364.92 414.717 342.435 416.292 285.268C416.607 273.839 416.903 263.444 431.722 262.111Z"/></svg>
